<svg width="18" height="17" viewBox="0 0 18 17" fill="none" xmlns="http://www.w3.org/2000/svg">
<path d="M1.93934 13.6672C1.35355 14.253 1.35355 15.2028 1.93934 15.7886C2.52513 16.3744 3.47487 16.3744 4.06066 15.7886L1.93934 13.6672ZM17.2279 1.99998C17.2279 1.17156 16.5563 0.499984 15.7279 0.499984L2.22792 0.499983C1.39949 0.499983 0.727922 1.17156 0.727922 1.99998C0.727922 2.82841 1.3995 3.49998 2.22792 3.49998H14.2279V15.5C14.2279 16.3284 14.8995 17 15.7279 17C16.5563 17 17.2279 16.3284 17.2279 15.5L17.2279 1.99998ZM4.06066 15.7886L16.7886 3.06064L14.6673 0.939323L1.93934 13.6672L4.06066 15.7886Z" fill="white"/>
</svg>
