<svg width="16" height="204" viewBox="0 0 16 204" fill="none" xmlns="http://www.w3.org/2000/svg">
<path d="M7.29289 203.707C7.68342 204.098 8.31658 204.098 8.70711 203.707L15.0711 197.343C15.4616 196.953 15.4616 196.319 15.0711 195.929C14.6805 195.538 14.0474 195.538 13.6569 195.929L8 201.586L2.34315 195.929C1.95262 195.538 1.31946 195.538 0.928932 195.929C0.538408 196.319 0.538408 196.953 0.928932 197.343L7.29289 203.707ZM9 1C9 0.447708 8.55228 0 8 0C7.44772 0 7 0.447708 7 1H9ZM9 203L9 1H7L7 203H9Z" fill="black"/>
</svg>
