<svg width="88" height="62" viewBox="0 0 88 62" fill="none" xmlns="http://www.w3.org/2000/svg">
<path fill-rule="evenodd" clip-rule="evenodd" d="M28.9536 8.85714V0C19.2534 1.99486 12.0028 6.50318 7.20167 13.5251C2.40053 20.547 0 30.0823 0 42.1313V62H32.628V35.4286H18.6656V32.6757C18.6656 26.2123 19.5229 21.0058 21.2376 17.056C22.9523 13.1062 25.5243 10.3732 28.9536 8.85714ZM83.3336 8.85714V0C73.6333 1.99486 66.3828 6.50318 61.5816 13.5251C56.7805 20.547 54.3799 30.0823 54.3799 42.1313V62H87.0079V35.4286H73.0455V32.6757C73.0455 26.2123 73.9028 21.0058 75.6175 17.056C77.3322 13.1062 79.9042 10.3732 83.3336 8.85714Z" fill="white"/>
</svg>
