<svg width="506" height="435" viewBox="0 0 506 435" fill="none" xmlns="http://www.w3.org/2000/svg">
<path opacity="0.37" d="M99.5329 341.332C100.389 343.435 101.335 345.538 102.372 347.552C117.781 377.582 149.052 396.512 182.394 399.913C209.069 402.599 235.022 393.961 257.326 379.864C279.584 365.812 297.427 346.031 322.164 335.737C357.039 321.282 395.924 309.87 423.274 279.259C454.364 244.486 466.349 191.767 451.705 147.282C437.467 103.872 390.201 89.8193 353.479 70.7097C287.469 36.2946 196.047 13.4258 127.334 53.8378C45.0129 102.216 59.9721 212.04 86.0606 288.254C92.0083 305.619 92.7292 324.325 99.5329 341.332Z" fill="#CCE9FF"/>
<path d="M141.527 135.557L141.392 134.707H140.536C123.864 134.707 118.457 129.381 118.412 129.336L117.691 128.531L116.97 129.336C116.925 129.381 111.563 134.707 94.8468 134.707H93.9907L93.8556 135.557C93.8105 135.826 90.296 162.498 117.241 176.193L117.691 176.417L118.142 176.193C145.177 162.498 141.527 135.826 141.527 135.557ZM137.472 152.071C134.137 161.648 127.469 169.077 117.646 174.179C107.824 169.077 101.155 161.648 97.8207 152.071C95.3875 145.045 95.5227 138.913 95.7029 136.721C109.581 136.542 115.754 132.872 117.646 131.35C119.539 132.827 125.711 136.542 139.589 136.721C139.77 138.958 139.905 145.045 137.472 152.071Z" fill="#E794FF"/>
<path d="M167.976 101.276L167.03 98.8144C166.174 98.7249 165.363 98.5012 164.552 98.2327L162.614 100.023L157.027 96.0398L158.108 93.6231C157.568 92.9518 157.117 92.2357 156.757 91.4749L154.098 91.3854L152.972 84.6277L155.45 83.6879C155.54 82.8376 155.765 82.032 156.036 81.2265L154.233 79.3021L158.243 73.708L160.677 74.782C161.352 74.245 162.073 73.7975 162.839 73.4394L162.929 70.799L169.733 69.6802L170.679 72.1416C171.536 72.2311 172.347 72.4549 173.158 72.7234L175.095 70.9333L180.682 74.9163L179.601 77.333C180.142 78.0043 180.592 78.7203 180.953 79.4811L183.611 79.5706L184.737 86.3283L182.259 87.2681C182.124 88.1185 181.944 88.924 181.674 89.7296L183.476 91.6539L179.466 97.2481L177.033 96.174C176.357 96.711 175.636 97.1586 174.87 97.5166L174.78 100.157L167.976 101.276ZM164.101 96.0845L164.642 96.3083C165.633 96.711 166.714 96.9348 167.796 97.0243L168.381 97.0691L169.193 99.1725L172.932 98.5459L173.022 96.3083L173.563 96.0845C174.554 95.637 175.456 95.0552 176.312 94.3839L176.762 94.0259L178.835 94.9657L181.043 91.9225L179.466 90.2666L179.691 89.7296C180.097 88.745 180.322 87.6709 180.412 86.5968L180.457 86.0151L182.575 85.2095L181.944 81.495L179.691 81.4055L179.466 80.8684C179.015 79.8839 178.429 78.9888 177.754 78.1385L177.393 77.691L178.339 75.6323L175.275 73.4394L173.608 74.961L173.067 74.7373C172.076 74.3345 170.995 74.1107 169.913 74.0212L169.328 73.9765L168.517 71.8731L164.777 72.4996L164.687 74.7373L164.146 74.961C163.155 75.4086 162.254 75.9904 161.398 76.6617L160.947 77.0197L158.874 76.0799L156.666 79.1231L158.243 80.7789L158.018 81.316C157.613 82.3005 157.387 83.3746 157.297 84.4487L157.252 85.0305L155.134 85.836L155.765 89.5506L158.018 89.6401L158.243 90.1771C158.694 91.1617 159.28 92.0567 159.956 92.907L160.316 93.3546L159.37 95.4132L162.434 97.6061L164.101 96.0845ZM168.787 92.9518C167.255 92.9518 165.723 92.4595 164.461 91.5644C161.082 89.1925 160.316 84.5382 162.704 81.1817C165.092 77.8252 169.778 77.0644 173.158 79.4364C174.78 80.5999 175.861 82.3006 176.222 84.2697C176.537 86.2388 176.086 88.208 174.96 89.8191C173.788 91.4302 172.076 92.5043 170.094 92.8623C169.598 92.907 169.193 92.9518 168.787 92.9518ZM168.787 79.9286C167.03 79.9286 165.318 80.7342 164.236 82.2558C163.38 83.4641 163.02 84.941 163.29 86.4178C163.56 87.8947 164.326 89.1478 165.543 89.9981C166.759 90.8484 168.246 91.2064 169.733 90.9379C171.22 90.6694 172.482 89.9086 173.338 88.7002C174.194 87.4919 174.554 86.0151 174.284 84.5382C174.014 83.0613 173.248 81.8083 172.031 80.958C171.04 80.2867 169.913 79.9286 168.787 79.9286Z" fill="#E794FF"/>
<path d="M383.983 174.224L381.866 168.719C379.613 168.451 377.36 167.958 375.242 167.197L370.917 171.225L359.202 162.946L361.635 157.576C360.238 155.83 359.021 153.906 358.03 151.847L352.128 151.668L349.74 137.571L355.282 135.468C355.552 133.23 356.048 130.992 356.814 128.889L352.758 124.593L361.094 112.957L366.501 115.373C368.258 113.986 370.196 112.778 372.268 111.793L372.449 105.931L386.642 103.559L388.76 109.063C391.012 109.332 393.265 109.824 395.383 110.585L399.709 106.557L411.424 114.836L408.991 120.207C410.387 121.952 411.604 123.876 412.595 125.935L418.498 126.114L420.886 140.211L415.344 142.315C415.073 144.552 414.578 146.79 413.812 148.893L417.867 153.19L409.531 164.826L404.124 162.409C402.367 163.796 400.43 165.005 398.357 165.989L398.177 171.852L383.983 174.224ZM374.611 164.333L375.332 164.602C377.72 165.497 380.244 166.079 382.812 166.302L383.623 166.392L385.56 171.404L395.653 169.704L395.834 164.333L396.555 164.02C398.898 162.991 401.105 161.603 403.088 159.947L403.674 159.455L408.63 161.648L414.578 153.369L410.883 149.431L411.153 148.714C412.055 146.343 412.64 143.836 412.866 141.285L412.911 140.48L417.957 138.556L416.245 128.531L410.838 128.352L410.523 127.636C409.486 125.309 408.089 123.116 406.422 121.147L405.927 120.565L408.134 115.642L399.799 109.735L395.834 113.404L395.113 113.136C392.725 112.241 390.201 111.659 387.633 111.435L386.822 111.39L384.885 106.378L374.792 108.079L374.611 113.449L373.89 113.762C371.547 114.792 369.34 116.179 367.357 117.835L366.771 118.327L361.815 116.134L355.957 124.414L359.652 128.352L359.382 129.068C358.481 131.44 357.895 133.946 357.67 136.497L357.625 137.302L352.578 139.227L354.29 149.251L359.697 149.431L360.013 150.147C361.049 152.474 362.446 154.667 364.113 156.636L364.609 157.218L362.401 162.14L370.736 168.048L374.611 164.333ZM385.245 155.114C381.956 155.114 378.667 154.13 375.783 152.116C368.439 146.924 366.726 136.765 371.953 129.471C377.18 122.176 387.408 120.475 394.752 125.667C402.097 130.858 403.809 141.017 398.582 148.312C395.383 152.742 390.337 155.114 385.245 155.114ZM385.29 125.174C380.965 125.174 376.684 127.188 374.026 130.947C371.863 133.946 371.052 137.571 371.638 141.196C372.268 144.821 374.251 147.954 377.27 150.102C383.488 154.488 392.139 153.056 396.555 146.88C398.672 143.881 399.528 140.256 398.943 136.631C398.312 133.006 396.329 129.873 393.31 127.725C390.832 125.98 388.039 125.174 385.29 125.174Z" fill="#E794FF"/>
<path d="M164.597 274.918C162.434 268.876 159.956 262.074 162.704 255.092C166.399 245.694 158.559 240.861 151.665 236.52C145.717 232.85 140.13 229.359 142.023 223.586C144.095 217.321 143.96 212.488 141.617 209.31C139.634 206.625 136.12 205.193 131.434 205.238C127.694 205.282 124.36 200.717 120.8 195.929C116.61 190.29 112.329 184.472 106.922 185.77C105.976 185.994 105.21 186.531 104.76 187.381C102.867 190.917 105.841 199.33 109.04 208.281C112.465 217.947 116.385 228.867 113.816 233.521C111.023 238.623 116.069 243.278 121.431 248.245C127.108 253.481 133.552 259.434 131.839 266.907C130.217 273.889 129.857 276.484 130.848 278.006C131.614 279.214 133.191 279.483 135.579 279.93C137.201 280.244 139.274 280.602 141.797 281.407C152.656 284.764 155.81 291.745 155.855 291.835L155.99 292.148L156.306 292.103C161.533 291.298 164.597 289.821 166.038 287.449C166.129 287.315 166.174 287.18 166.264 287.046C167.796 283.869 166.309 279.707 164.597 274.918Z" fill="#E794FF"/>
<path d="M136.841 261.582C138.643 264.357 139.95 266.773 139.815 270.175C139.725 273.352 139.229 276.485 138.959 279.617C138.914 280.289 138.869 280.915 138.823 281.542C137.922 280.781 137.066 280.02 136.165 279.259C135.76 279.215 135.354 279.215 134.903 279.215C136.165 280.244 137.472 281.363 138.733 282.482C138.598 284.675 138.553 286.867 138.553 289.06C138.553 290.358 138.508 291.745 138.598 293.043C137.427 292.327 136.21 291.611 135.084 290.895C131.569 288.747 128.28 286.733 125.757 285.659C123.819 284.854 121.656 284.137 119.584 283.466C114.177 281.721 108.635 279.931 106.787 276.127C105.841 274.158 105.931 271.786 107.058 268.921C109.896 261.537 107.238 260.284 102.777 258.136C99.533 256.57 95.1173 254.466 90.7016 249.141C88.7641 246.813 87.0519 244.8 85.52 243.054C80.9691 237.729 78.4459 234.82 78.7613 233.119C78.8514 232.716 79.0767 232.358 79.5273 232C79.7526 231.821 80.0229 231.642 80.3834 231.463C82.0956 230.523 83.8078 231.239 85.7453 232.045C88.3586 233.119 91.5577 234.506 96.0185 232.224C99.533 230.434 103.453 228.778 105.796 230.121C107.418 231.016 108.364 233.343 108.68 237.147C108.77 238.355 109.175 239.205 109.851 239.698C110.843 240.414 112.374 240.324 114.132 239.966C115.348 241.622 116.925 242.428 118.818 243.099C121.476 244.039 123.459 244.889 125.396 247.037C129.542 251.691 133.552 256.435 136.841 261.582Z" fill="#2A94F4"/>
<path d="M122.467 268.966C119.764 267.176 117.421 262.835 115.168 258.628C112.104 252.899 108.905 246.992 104.534 247.126C97.5053 247.305 91.2423 239.071 91.1522 239.026L90.5664 239.473C90.8368 239.831 97.1449 248.066 104.534 247.887C108.454 247.798 111.563 253.481 114.492 259.031C116.79 263.282 119.178 267.713 122.017 269.637C123.729 270.756 126.883 273.038 130.623 275.947C130.623 275.634 130.623 275.321 130.623 275.007C127.334 272.277 124.405 270.219 122.467 268.966Z" fill="white"/>
<path d="M359.922 324.415C359.922 324.415 363.978 314.39 356.588 300.159C349.154 285.928 343.161 288.12 361.049 277.156C378.937 266.191 361.139 231.732 376.369 227.346C391.598 222.96 404.8 167.153 416.38 174.269C427.96 181.384 412.505 208.728 420.796 216.963C429.041 225.198 430.168 235.625 413.091 244.083C396.014 252.542 425.211 284.853 402.052 294.699C378.892 304.545 385.56 343.167 359.922 324.415Z" fill="#E794FF"/>
<path d="M366.996 335.022C366.951 334.887 364.473 322.088 372.358 305.529C380.379 288.657 384.209 270.219 382.632 256.167C381.775 248.559 386.687 245.605 391.418 242.741C396.104 239.921 400.925 236.968 400.655 229.494C400.429 222.736 403.313 206.893 403.403 206.222L404.44 206.401C404.394 206.58 401.466 222.826 401.691 229.449C401.961 237.549 396.87 240.637 391.959 243.591C387.272 246.41 382.902 249.096 383.668 256.032C385.29 270.219 381.415 288.881 373.305 305.932C365.6 322.177 367.988 334.664 368.033 334.798L366.996 335.022Z" fill="white"/>
<path d="M428.501 251.87C434.944 248.827 441.793 250.214 438.233 256.614C434.674 263.014 429.357 263.506 430.348 268.563C431.339 273.62 433.953 279.125 425.572 282.347C417.191 285.524 413.271 284.987 408.179 294.341C403.043 303.694 401.286 310.631 392.499 308.393C383.713 306.111 391.012 294.609 395.563 289.776C395.563 289.776 401.736 284.585 401.646 275.231C401.556 265.878 397.681 259.612 409.847 260.239C422.012 260.776 424.13 253.929 428.501 251.87Z" fill="#0E538C"/>
<path d="M391.103 314.927C391.463 313.719 399.934 284.763 406.873 281.631C413.947 278.409 417.777 269.995 419.444 265.296C421.607 259.165 430.844 257.956 431.204 257.912L431.339 258.941C431.249 258.941 422.373 260.105 420.435 265.609C418.362 271.561 414.397 279.348 407.323 282.571C400.835 285.524 392.229 314.927 392.139 315.24L391.103 314.927Z" fill="white"/>
<path d="M167.931 291.611C154.053 288.165 153.873 280.736 153.693 273.575C153.557 267.713 153.422 262.163 145.898 258.762C135.94 254.242 135.714 245.873 135.489 238.489C135.309 232.984 135.174 227.793 131.028 224.974C121.071 218.216 112.645 201.836 112.555 201.657L113.321 201.254C113.411 201.433 121.701 217.589 131.524 224.257C136.03 227.301 136.21 232.716 136.345 238.444C136.571 245.918 136.796 253.705 146.258 257.957C154.233 261.582 154.413 267.668 154.549 273.531C154.729 280.691 154.909 287.494 168.156 290.761L167.931 291.611Z" fill="white"/>
<path d="M149.232 284.988H377.18V121.549C377.18 119.222 375.287 117.298 372.899 117.298H153.512C151.169 117.298 149.232 119.177 149.232 121.549V284.988Z" fill="#F7F7F7"/>
<path d="M157.283 254.517L368.695 254.517V125.493L157.283 125.493L157.283 254.517Z" fill="#0B4870" stroke="white" stroke-width="0.5" stroke-miterlimit="10"/>
<path d="M377.18 260.776H263.228H149.322L124.36 353.37H263.994H402.097L377.18 260.776Z" fill="#F2F2F2"/>
<path d="M157.928 277.021H171.941C172.527 277.021 172.977 277.469 172.842 277.961L171.49 284.003C171.4 284.361 171.04 284.63 170.589 284.63H156.351C155.765 284.63 155.315 284.182 155.45 283.645L157.027 277.603C157.117 277.29 157.478 277.021 157.928 277.021Z" fill="#0B4870" stroke="white" stroke-width="0.5" stroke-miterlimit="10"/>
<path d="M178.339 277.021H188.928L187.531 284.674H176.717L178.339 277.021Z" fill="#0B4870" stroke="white" stroke-width="0.5" stroke-miterlimit="10"/>
<path d="M194.199 277.021H204.788L203.707 284.674H192.893L194.199 277.021Z" fill="#0B4870" stroke="white" stroke-width="0.5" stroke-miterlimit="10"/>
<path d="M210.105 277.021H220.694L219.883 284.674H209.069L210.105 277.021Z" fill="#0B4870" stroke="white" stroke-width="0.5" stroke-miterlimit="10"/>
<path d="M225.965 277.021H236.554L236.058 284.674H225.244L225.965 277.021Z" fill="#0B4870" stroke="white" stroke-width="0.5" stroke-miterlimit="10"/>
<path d="M241.826 277.021H252.414L252.234 284.674H241.42L241.826 277.021Z" fill="#0B4870" stroke="white" stroke-width="0.5" stroke-miterlimit="10"/>
<path d="M368.889 277.021H352.983L354.696 284.674H370.871L368.889 277.021Z" fill="#0B4870" stroke="white" stroke-width="0.5" stroke-miterlimit="10"/>
<path d="M347.712 277.021H337.123L338.52 284.674H349.334L347.712 277.021Z" fill="#0B4870" stroke="white" stroke-width="0.5" stroke-miterlimit="10"/>
<path d="M331.851 277.021H321.263L322.344 284.674H333.158L331.851 277.021Z" fill="#0B4870" stroke="white" stroke-width="0.5" stroke-miterlimit="10"/>
<path d="M315.946 277.021H305.357L306.168 284.674H316.982L315.946 277.021Z" fill="#0B4870" stroke="white" stroke-width="0.5" stroke-miterlimit="10"/>
<path d="M300.086 277.021H289.497L289.993 284.674H300.807L300.086 277.021Z" fill="#0B4870" stroke="white" stroke-width="0.5" stroke-miterlimit="10"/>
<path d="M284.225 277.021H273.637L273.817 284.674H284.631L284.225 277.021Z" fill="#0B4870" stroke="white" stroke-width="0.5" stroke-miterlimit="10"/>
<path d="M257.731 277.021H268.32L268.455 284.674H257.731V277.021Z" fill="#0B4870" stroke="white" stroke-width="0.5" stroke-miterlimit="10"/>
<path d="M153.287 290.358H175.366L174.104 298.234H151.575L153.287 290.358Z" fill="#0B4870" stroke="white" stroke-width="0.5" stroke-miterlimit="10"/>
<path d="M372.313 290.358H345.008L346.54 298.234H374.431L372.313 290.358Z" fill="#0B4870" stroke="white" stroke-width="0.5" stroke-miterlimit="10"/>
<path d="M339.511 290.358H328.607L329.824 298.234H340.998L339.511 290.358Z" fill="#0B4870" stroke="white" stroke-width="0.5" stroke-miterlimit="10"/>
<path d="M323.11 290.358H312.206L313.107 298.234H324.282L323.11 290.358Z" fill="#0B4870" stroke="white" stroke-width="0.5" stroke-miterlimit="10"/>
<path d="M306.709 290.358H295.805L296.436 298.234H307.565L306.709 290.358Z" fill="#0B4870" stroke="white" stroke-width="0.5" stroke-miterlimit="10"/>
<path d="M290.308 290.358H279.404L279.719 298.234H290.849L290.308 290.358Z" fill="#0B4870" stroke="white" stroke-width="0.5" stroke-miterlimit="10"/>
<path d="M149.953 304.366H172.572L170.905 312.198H147.88L149.953 304.366Z" fill="#0B4870" stroke="white" stroke-width="0.5" stroke-miterlimit="10"/>
<path d="M178.204 304.366H189.514L188.207 312.198H176.672L178.204 304.366Z" fill="#0B4870" stroke="white" stroke-width="0.5" stroke-miterlimit="10"/>
<path d="M195.191 304.366H206.5H279.945L280.26 312.198H193.929L195.191 304.366Z" fill="#0B4870" stroke="white" stroke-width="0.5" stroke-miterlimit="10"/>
<path d="M285.622 304.366H296.932L297.562 312.198H286.028L285.622 304.366Z" fill="#0B4870" stroke="white" stroke-width="0.5" stroke-miterlimit="10"/>
<path d="M302.564 304.366H313.873L314.819 312.198H303.285L302.564 304.366Z" fill="#0B4870" stroke="white" stroke-width="0.5" stroke-miterlimit="10"/>
<path d="M319.551 304.366H330.86L332.077 312.198H320.587L319.551 304.366Z" fill="#0B4870" stroke="white" stroke-width="0.5" stroke-miterlimit="10"/>
<path d="M336.492 304.366H347.802L349.334 312.198H337.844L336.492 304.366Z" fill="#0B4870" stroke="white" stroke-width="0.5" stroke-miterlimit="10"/>
<path d="M353.434 304.366H376.053L378.126 312.198H355.101L353.434 304.366Z" fill="#0B4870" stroke="white" stroke-width="0.5" stroke-miterlimit="10"/>
<path d="M273.952 290.358H263.093V298.234H274.132L273.952 290.358Z" fill="#0B4870" stroke="white" stroke-width="0.5" stroke-miterlimit="10"/>
<path d="M257.551 290.358H246.602L246.286 298.234H257.461L257.551 290.358Z" fill="#0B4870" stroke="white" stroke-width="0.5" stroke-miterlimit="10"/>
<path d="M241.15 290.358H230.201L229.57 298.234H240.744L241.15 290.358Z" fill="#0B4870" stroke="white" stroke-width="0.5" stroke-miterlimit="10"/>
<path d="M224.749 290.358H213.8L212.854 298.234H224.028L224.749 290.358Z" fill="#0B4870" stroke="white" stroke-width="0.5" stroke-miterlimit="10"/>
<path d="M208.348 290.358H197.399L196.137 298.234H207.311L208.348 290.358Z" fill="#0B4870" stroke="white" stroke-width="0.5" stroke-miterlimit="10"/>
<path d="M191.947 290.358H180.998L179.466 298.234H190.595L191.947 290.358Z" fill="#0B4870" stroke="white" stroke-width="0.5" stroke-miterlimit="10"/>
<path d="M158.424 272.233L160.226 265.431H165.363L163.695 272.233H158.424Z" fill="#0B4870" stroke="white" stroke-width="0.5" stroke-miterlimit="10"/>
<path d="M170.499 265.431H180.772L179.375 272.233H168.877L170.499 265.431Z" fill="#0B4870" stroke="white" stroke-width="0.5" stroke-miterlimit="10"/>
<path d="M185.954 265.431H196.227L195.056 272.233H184.602L185.954 265.431Z" fill="#0B4870" stroke="white" stroke-width="0.5" stroke-miterlimit="10"/>
<path d="M201.364 265.431H211.637L210.736 272.233H200.282L201.364 265.431Z" fill="#0B4870" stroke="white" stroke-width="0.5" stroke-miterlimit="10"/>
<path d="M216.774 265.431H227.047L226.416 272.233H215.963L216.774 265.431Z" fill="#0B4870" stroke="white" stroke-width="0.5" stroke-miterlimit="10"/>
<path d="M232.183 265.431H242.456L242.096 272.233H231.643L232.183 265.431Z" fill="#0B4870" stroke="white" stroke-width="0.5" stroke-miterlimit="10"/>
<path d="M247.593 265.431H257.866L257.776 272.233H247.323L247.593 265.431Z" fill="#0B4870" stroke="white" stroke-width="0.5" stroke-miterlimit="10"/>
<path d="M263.003 265.431H273.276L273.456 272.233H263.003V265.431Z" fill="#0B4870" stroke="white" stroke-width="0.5" stroke-miterlimit="10"/>
<path d="M278.413 265.431H288.686L289.137 272.233H278.683L278.413 265.431Z" fill="#0B4870" stroke="white" stroke-width="0.5" stroke-miterlimit="10"/>
<path d="M293.823 265.431H304.141L304.817 272.233H294.363L293.823 265.431Z" fill="#0B4870" stroke="white" stroke-width="0.5" stroke-miterlimit="10"/>
<path d="M309.277 265.431H319.551L320.542 272.233H310.088L309.277 265.431Z" fill="#0B4870" stroke="white" stroke-width="0.5" stroke-miterlimit="10"/>
<path d="M324.687 265.431H334.961L336.222 272.233H325.769L324.687 265.431Z" fill="#0B4870" stroke="white" stroke-width="0.5" stroke-miterlimit="10"/>
<path d="M340.097 265.431H350.37L351.902 272.233H341.449L340.097 265.431Z" fill="#0B4870" stroke="white" stroke-width="0.5" stroke-miterlimit="10"/>
<path d="M355.507 265.431H365.78L367.582 272.233H357.129L355.507 265.431Z" fill="#0B4870" stroke="white" stroke-width="0.5" stroke-miterlimit="10"/>
<path d="M394.842 360.576H131.614C127.604 360.576 124.36 357.354 124.36 353.371H402.097C402.097 357.354 398.852 360.576 394.842 360.576Z" fill="#D3D3D3"/>
<path d="M295.535 323.43C295.264 321.819 293.823 320.611 292.2 320.611H263.273H234.301C232.634 320.611 231.237 321.819 230.967 323.43L227.362 345.136C227.002 347.194 228.624 349.074 230.696 349.074H263.228H295.76C297.878 349.074 299.455 347.194 299.094 345.136L295.535 323.43Z" fill="#D3D3D3"/>
<path d="M195.101 136.452H171.535V138.869H195.101V136.452Z" fill="#F7F7F7"/>
<path d="M218.711 154.488H201.724V156.904H218.711V154.488Z" fill="#F7F7F7"/>
<path d="M232.634 154.488H221.369V156.904H232.634V154.488Z" fill="#F7F7F7"/>
<path d="M183.07 199.867H171.806V202.284H183.07V199.867Z" fill="#F7F7F7"/>
<path d="M262.147 154.488H234.887V156.904H262.147V154.488Z" fill="#F7F7F7"/>
<path d="M189.333 190.782H171.806V193.199H189.333V190.782Z" fill="#F7F7F7"/>
<path d="M206.906 208.863H196.227V211.279H206.906V208.863Z" fill="#F7F7F7"/>
<path d="M192.983 208.863H171.806V211.279H192.983V208.863Z" fill="#F7F7F7"/>
<path d="M183.476 217.903H171.806V220.319H183.476V217.903Z" fill="#F7F7F7"/>
<path d="M216.413 136.452H199.697V138.869H216.413V136.452Z" fill="#F7F7F7"/>
<path d="M216.413 163.528H199.697V165.944H216.413V163.528Z" fill="#F7F7F7"/>
<path d="M198.48 172.523H191.316V174.94H198.48V172.523Z" fill="#F7F7F7"/>
<path d="M200.237 181.697H184.197V184.114H200.237V181.697Z" fill="#F7F7F7"/>
<path d="M224.839 181.697H202.67V184.114H224.839V181.697Z" fill="#F7F7F7"/>
<path d="M188.522 172.613H171.806V175.029H188.522V172.613Z" fill="#F7F7F7"/>
<path d="M181.718 181.697H171.806V184.114H181.718V181.697Z" fill="#F7F7F7"/>
<path d="M211.231 172.613H201.859V175.029H211.231V172.613Z" fill="#F7F7F7"/>
<path d="M181.493 226.898H172.121V229.315H181.493V226.898Z" fill="#F7F7F7"/>
<path d="M188.477 154.488H171.761V156.904H188.477V154.488Z" fill="#F7F7F7"/>
<path d="M203.256 199.867H186.54V202.284H203.256V199.867Z" fill="#F7F7F7"/>
<path d="M203.481 217.903H186.765V220.319H203.481V217.903Z" fill="#F7F7F7"/>
<path d="M233.174 217.903H216.458V220.319H233.174V217.903Z" fill="#F7F7F7"/>
<path d="M195.596 163.528H171.761V165.944H195.596V163.528Z" fill="#F7F7F7"/>
<path d="M300.176 136.452H283.459V138.869H300.176V136.452Z" fill="#F7F7F7"/>
<path d="M240.609 226.898H223.893V229.315H240.609V226.898Z" fill="#F7F7F7"/>
<path d="M316.532 136.452H305.357V138.869H316.532V136.452Z" fill="#F7F7F7"/>
<path d="M354.425 145.492H343.251V147.909H354.425V145.492Z" fill="#F7F7F7"/>
<path d="M242.231 136.452H220.919V138.869H242.231V136.452Z" fill="#F7F7F7"/>
<path d="M325.228 145.492H303.916V147.909H325.228V145.492Z" fill="#F7F7F7"/>
<path d="M299.094 154.488H277.782V156.904H299.094V154.488Z" fill="#F7F7F7"/>
<path d="M271.384 163.528H250.071V165.944H271.384V163.528Z" fill="#F7F7F7"/>
<path d="M316.892 154.488H301.753V156.904H316.892V154.488Z" fill="#F7F7F7"/>
<path d="M279.269 136.452H257.956V138.869H279.269V136.452Z" fill="#F7F7F7"/>
<path d="M246.151 163.528H233.67V165.944H246.151V163.528Z" fill="#F7F7F7"/>
<path d="M236.374 200.001H223.893V202.418H236.374V200.001Z" fill="#F7F7F7"/>
<path d="M253.946 136.452H246.151V138.869H253.946V136.452Z" fill="#F7F7F7"/>
<path d="M228.714 163.528H220.919V165.944H228.714V163.528Z" fill="#F7F7F7"/>
<path d="M338.16 145.492H330.365V147.909H338.16V145.492Z" fill="#F7F7F7"/>
<path d="M183.746 145.492H171.535V147.909H183.746V145.492Z" fill="#F7F7F7"/>
<path d="M213.755 190.827H204.112V193.244H213.755V190.827Z" fill="#F7F7F7"/>
<path d="M190.685 145.492H186.765V147.909H190.685V145.492Z" fill="#F7F7F7"/>
<path d="M300.176 145.492H267.599V147.909H300.176V145.492Z" fill="#F7F7F7"/>
<path d="M268.95 217.903H236.374V220.319H268.95V217.903Z" fill="#F7F7F7"/>
<path d="M197.579 145.492H193.569V147.909H197.579V145.492Z" fill="#F7F7F7"/>
<path d="M264.58 145.492H253.946V147.909H264.58V145.492Z" fill="#F7F7F7"/>
<path d="M275.259 154.488H264.625V156.904H275.259V154.488Z" fill="#F7F7F7"/>
<path d="M220.468 226.898H209.834V229.315H220.468V226.898Z" fill="#F7F7F7"/>
<path d="M251.153 145.492H228.489V147.909H251.153V145.492Z" fill="#F7F7F7"/>
<path d="M220.603 200.001H207.356V202.418H220.603V200.001Z" fill="#F7F7F7"/>
<path d="M213.169 217.903H206.545V220.319H213.169V217.903Z" fill="#F7F7F7"/>
<path d="M225.244 145.492H217.449V147.909H225.244V145.492Z" fill="#F7F7F7"/>
<path d="M199.021 154.488H191.226V156.904H199.021V154.488Z" fill="#F7F7F7"/>
<path d="M200.553 190.827H192.758V193.244H200.553V190.827Z" fill="#F7F7F7"/>
<path d="M214.521 145.492H200.913V147.909H214.521V145.492Z" fill="#F7F7F7"/>
<path d="M315 163.617C315 163.617 318.965 170.285 320.632 171.36C322.885 172.836 321.488 174.313 320.407 174.358C319.325 174.358 313.828 174.761 312.612 173.373C311.395 171.986 310.809 167.914 309.683 166.839C308.557 165.765 307.385 161.514 310.224 160.485C312.702 159.545 315 163.617 315 163.617Z" fill="#FFB750"/>
<path d="M313.242 160.708C313.242 160.708 317.793 168.54 318.559 169.659C319.325 170.823 317.072 170.823 315.676 170.285C314.279 169.748 310.764 164.154 310.269 163.125C309.683 161.917 310.179 160.529 310.179 160.529L313.242 160.708Z" fill="#FFE3CA"/>
<path d="M308.646 164.87L309.728 172.881L310.269 172.926L310.088 167.153L308.646 164.87Z" fill="#FFB750"/>
<path d="M275.664 163.617C275.664 163.617 279.629 170.286 281.296 171.36C283.549 172.836 282.153 174.313 281.071 174.358C279.99 174.358 274.493 174.761 273.276 173.373C272.06 171.986 271.474 167.914 270.347 166.84C269.221 165.765 268.004 161.38 270.888 160.485C273.411 159.679 275.664 163.617 275.664 163.617Z" fill="#FFB750"/>
<path d="M274.177 160.708C274.177 160.708 278.458 168.495 279.269 169.659C280.035 170.823 277.782 170.823 276.385 170.285C274.988 169.748 271.474 164.154 270.978 163.125C270.392 161.917 270.888 160.529 270.888 160.529L274.177 160.708Z" fill="#FFE3CA"/>
<path d="M269.356 164.87L270.392 172.881L270.978 172.926L270.798 167.153L269.356 164.87Z" fill="#FFB750"/>
<path d="M258.092 102.887L293.958 119.132C293.958 119.132 297.968 120.43 298.418 124.861C299.815 138.645 310.178 160.484 310.178 160.484C313.513 162.095 313.242 160.708 313.242 160.708C311.125 153.995 308.601 126.427 307.655 115.373C307.475 113.046 307.34 111.435 307.295 110.898C307.295 110.54 306.889 110.092 306.213 109.555C301.302 105.572 281.026 97.3825 281.026 97.3825C265.932 96.9797 258.092 102.887 258.092 102.887Z" fill="#FFE3CA"/>
<path d="M251.333 109.869C252.459 119.491 266.292 118.416 266.292 118.416H283.054C283.054 118.416 278.638 128.173 276.926 136.362C275.124 145.089 270.843 160.484 270.843 160.484C270.843 160.484 271.113 161.021 274.177 160.708C274.177 160.708 287.334 134.662 292.381 128.083C293.462 126.696 296.571 118.998 297.112 114.433C297.292 112.912 297.202 111.703 296.616 111.211C296.03 110.719 294.679 109.824 292.921 108.705C287.65 105.393 278.548 100.336 273.456 99.2173C266.653 97.6957 255.884 94.8315 255.884 94.8315C255.884 94.8315 250.207 100.247 251.333 109.869Z" fill="#FFE3CA"/>
<path d="M262.732 35.668C262.732 35.668 260.209 30.9242 261.426 25.9119C262.642 20.8548 267.373 15.8424 274.267 18.1696C281.161 20.4967 286.748 25.7776 282.603 31.9535C278.458 38.0847 286.343 40.9042 284.315 43.8131C282.288 46.7221 283.054 49.81 283.91 50.4813C284.766 51.1526 287.514 53.5693 287.199 56.4782C286.884 59.3424 273.817 48.1094 273.817 48.1094C273.817 48.1094 266.743 33.8332 262.732 35.668Z" fill="#0E538C"/>
<path d="M283.775 96.1741C283.775 96.1741 282.738 101.186 255.929 94.8762C255.929 94.8762 264.895 91.9225 283.775 96.1741Z" fill="#EB4747"/>
<path d="M255.613 96.2636C255.208 97.0692 254.802 97.83 254.352 98.6355C264.129 98.904 273.952 99.2173 283.729 99.4858C282.198 94.3392 282.693 87.3577 282.963 82.0769C283.279 75.5877 286.884 71.1124 286.523 64.5784C288.461 64.8917 288.776 64.9364 290.713 65.2497C287.74 56.8361 286.748 52.6741 277.511 49.4519C274.493 48.3778 272.555 48.1988 269.311 48.4673C258.632 49.3624 255.433 49.4519 250.161 59.0738C258.362 60.3716 257.01 63.2806 259.488 71.4256C260.705 75.3639 261.967 79.7945 261.336 83.9565C260.705 88.029 255.613 92.5491 255.613 96.2636Z" fill="white"/>
<path d="M272.645 51.466C268.275 50.6605 269.221 48.2438 269.221 48.2438C269.221 48.2438 269.401 46.9012 269.491 45.1559C269.491 44.7083 269.536 44.2608 269.536 43.7685C269.536 43.0525 269.491 42.3364 269.401 41.6204C269.041 38.7114 277.331 40.4568 277.331 40.4568C277.331 40.4568 276.836 46.3642 278.007 48.1096C279.134 49.8997 277.016 52.3163 272.645 51.466Z" fill="#FFE3CA"/>
<path d="M264.31 48.2438C264.31 48.2438 273.141 58.358 276.385 60.6851C276.385 60.6851 280.125 57.3286 277.827 48.4675C277.827 48.4675 273.591 46.3194 264.31 48.2438Z" fill="#FFE3CA"/>
<path d="M264.58 23.898C264.58 23.898 259.984 32.6696 264.535 40.9489C269.086 49.2282 278.007 37.3239 278.548 35.9365C279.134 34.5492 282.198 26.6279 276.115 24.256C270.032 21.8393 265.887 21.5261 264.58 23.898Z" fill="#FFE3CA"/>
<path d="M273.411 41.8438C273.411 41.8438 272.6 43.5891 269.491 45.1555C269.491 44.708 269.536 44.2604 269.536 43.7681C269.536 43.7681 271.654 43.5444 273.411 41.8438Z" fill="#FCD2B1"/>
<path d="M227.137 88.3873C227.137 88.3873 224.974 89.3271 223.938 88.9244C222.901 88.4768 221.324 88.3873 220.829 88.3873C220.153 88.3873 218.035 87.6265 218.08 88.4768C218.125 89.2824 221.505 89.8642 222.181 90.1327C222.856 90.4012 220.108 91.8781 219.838 92.5494C219.567 93.2206 222.721 97.6064 224.479 96.3534C226.236 95.1003 227.182 92.5941 227.542 92.4151C227.903 92.2361 228.849 91.5648 228.849 91.5648L227.137 88.3873Z" fill="#FFE3CA"/>
<path d="M220.198 92.1465C220.198 92.1465 215.106 96.3533 215.016 96.9351C214.926 97.5169 215.196 97.7854 215.692 97.3826C216.188 97.0246 220.738 93.4443 220.738 93.4443C220.738 93.4443 215.647 99.4412 215.467 99.8888C215.377 100.157 215.872 100.694 216.143 100.515C216.413 100.336 221.865 94.6974 221.865 94.6974C221.865 94.6974 217.089 100.292 217.089 100.739C217.044 101.097 217.63 101.5 218.035 101.097C218.441 100.694 223.172 95.7715 223.172 95.7715C223.172 95.7715 219.973 100.068 220.198 100.471C220.333 100.694 220.739 101.187 221.504 100.068C222.27 98.949 224.433 96.4428 224.433 96.4428L220.198 92.1465Z" fill="#FFE3CA"/>
<path d="M281.296 118.372H266.292C266.292 118.372 252.459 119.491 251.333 109.824C250.207 100.202 255.884 94.8315 255.884 94.8315C255.884 94.8315 263.183 96.7559 269.581 98.2775C272.781 97.6062 276.61 97.1587 281.116 97.293C281.116 97.293 308.151 106.154 307.34 110.853C307.34 110.898 296.03 104.901 281.296 118.372Z" fill="#0E538C"/>
<path d="M271.519 101.723L300.176 101.276L285.712 108.571L271.519 101.723Z" fill="#F2F2F2"/>
<path d="M280.44 98.0538C280.44 98.0538 273.997 100.515 266.112 98.2776L265.751 95.3687L282.017 96.2637L280.44 98.0538Z" fill="white"/>
<path d="M285.712 108.571L271.519 103.111V101.724L286.838 107.184L285.712 108.571Z" fill="#D3D3D3"/>
<path d="M280.305 99.4412C280.215 100.471 281.296 101.231 282.288 100.829L283.955 100.113C284.45 99.8887 284.766 99.3965 284.676 98.8594C284 94.5631 282.513 77.8255 284.676 74.9165C285.487 73.8424 285.982 72.9026 286.253 72.0971C287.695 75.7668 289.452 80.5107 290.173 83.0616L303.69 100.963L308.241 102.126C302.564 88.5662 298.013 81.4057 298.013 81.4057C297.112 79.0338 294.588 71.8733 292.336 65.5184C290.894 61.4906 289.632 57.7761 288.911 55.807C288.551 54.7776 287.875 53.9273 286.929 53.3903C284.811 52.1372 281.341 50.1681 278.187 48.6465H278.142C278.052 48.6017 277.962 48.557 277.827 48.5122C283.865 57.5076 281.522 83.0616 280.305 99.4412C280.305 99.3965 280.305 99.3965 280.305 99.4412Z" fill="#E794FF"/>
<path d="M257.956 49.2283C256.019 49.5416 251.243 54.1511 248.72 58.8055C245.836 64.1311 242.862 70.1727 240.654 72.1419C236.599 75.8116 225.199 88.7453 224.659 88.432C224.433 88.2977 227.768 92.2808 228.218 92.4598C228.443 92.5493 246.917 76.6172 248.72 74.2005C250.387 71.9181 254.892 62.2514 256.244 62.4752C256.334 62.699 258.001 66.2345 259.533 71.3811C259.579 71.4706 259.579 71.5601 259.624 71.6496C260.705 75.2298 260.615 79.1681 260.029 83.5539C259.579 86.8656 257.1 92.2808 255.613 94.9212C255.433 95.2345 255.478 95.861 255.658 96.3085C255.794 96.5771 255.929 96.8008 256.154 96.8903L261.606 98.9042L262.868 99.3517C263.769 99.7098 264.76 99.5308 265.481 98.9937C266.067 98.5909 266.517 97.9196 266.608 97.1141C267.824 87.895 269.356 78.4521 270.573 74.9166C275.935 59.3425 268.5 47.6172 268.5 47.6172C268.5 47.6172 259.669 48.6018 257.956 49.2283Z" fill="#E794FF"/>
<path d="M285.712 108.571L294.228 85.478L321.668 85.9256L313.558 107.228L285.712 108.571Z" fill="#E794FF"/>
<path d="M303.014 95.6821C302.158 97.338 302.429 99.1728 303.6 99.7099C304.772 100.292 306.349 99.3966 307.205 97.7407C308.061 96.0849 307.79 94.25 306.619 93.713C305.447 93.1312 303.825 94.0262 303.014 95.6821Z" fill="#F2F0F0"/>
<path d="M286.343 52.0475C284.315 49.0042 282.874 46.5876 282.693 42.2465C282.558 39.3823 281.927 35.4888 279.945 33.5644C282.017 28.1941 279.584 26.5829 278.593 24.8376C277.376 22.6447 268.365 17.3638 264.805 22.9132C261.246 28.4178 262.507 34.191 262.507 34.191C262.868 31.1478 266.022 27.0305 266.022 27.0305C266.518 30.2079 273.141 35.3993 276.025 37.5027C275.98 37.5475 275.935 37.637 275.935 37.6817C274.313 40.0089 276.34 42.336 276.701 44.7975C277.061 47.2589 269.897 53.8823 277.872 57.1941C285.847 60.5505 288.371 55.0459 286.343 52.0475Z" fill="#0E538C"/>
<path d="M141.302 312.735C141.302 312.735 141.121 314.614 132.29 314.614C123.459 314.614 110.617 312.332 110.617 312.332L131.119 310.363C131.119 310.363 139.004 309.96 141.302 312.735Z" fill="#0E538C"/>
<path d="M118.818 313.406C113.816 313.406 111.698 315.957 109.716 316.762C107.733 317.568 105.751 318.776 105.751 318.732C106.877 316.539 108.454 316.494 109.265 315.778C110.076 315.062 109.851 315.42 108.094 315.286C107.103 315.196 105.3 317.031 104.039 318.06C102.912 318.911 102.236 319 102.236 319C102.236 319 103.543 317.165 105.165 315.688C107.148 313.898 109.626 312.421 110.212 312.153C111.293 311.705 114.627 311.616 116.97 311.929C119.674 312.287 122.422 313.406 118.818 313.406Z" fill="#0E538C"/>
<path d="M110.527 312.242C110.527 312.242 106.697 313.227 106.021 313.764C105.571 314.122 103.588 316.225 103.588 316.225C103.588 316.225 105.03 316.001 105.841 315.196C106.697 314.346 110.527 312.242 110.527 312.242Z" fill="#0E538C"/>
<path d="M134.047 308.886C134.047 308.886 143.69 309.512 143.014 315.42C142.653 318.776 140.446 319.94 137.517 319.671C132.11 319.224 125.982 318.418 125.982 318.418L123.233 309.244L134.047 308.886Z" fill="#0E538C"/>
<path d="M136.075 309.691L145.537 279.393C145.537 279.393 146.934 274.963 149.232 275.768C152.521 276.977 150.899 280.602 150.628 282.75C150.043 287.136 150.448 289.06 147.384 299.622C145.492 306.156 143.87 313.674 142.248 317.97C141.121 320.924 139.184 316.673 136.255 315.509C130.758 313.316 136.075 309.691 136.075 309.691Z" fill="#0E538C"/>
<path d="M136.796 262.924C138.643 268.205 144.366 270.935 149.637 269.011C154.864 267.086 157.658 261.224 155.81 255.943C153.963 250.662 148.241 247.932 142.969 249.857C137.742 251.781 134.949 257.644 136.796 262.924Z" fill="#0E538C"/>
<path d="M126.432 263.416C129.316 267.713 135.084 268.787 139.274 265.833L138.688 260.776C142.879 257.777 143.915 251.87 141.031 247.574L139.049 244.665C136.165 240.369 130.398 239.294 126.207 242.248L124.315 243.591C120.124 246.589 119.088 252.497 121.972 256.793L126.432 263.416Z" fill="#0E538C"/>
<path d="M122.648 249.319C123.143 250.035 123.684 250.707 124.315 251.378C128.46 255.853 134.002 257.554 137.517 255.719C139.139 257.912 140.986 259.657 142.653 261C144.591 262.566 149.547 263.193 149.547 263.193C152.431 266.326 141.617 284.63 140.851 284.54C139.274 284.406 137.246 274.292 138.733 270.622C139.409 268.966 140.491 266.997 140.175 266.102C139.049 263.014 137.472 263.551 137.472 263.551C137.472 263.551 135.399 265.967 133.777 265.878C132.11 265.744 129.226 263.148 129.091 263.103C128.595 262.701 128.145 262.208 127.739 261.626L123.414 255.182C122.287 253.392 122.017 251.244 122.648 249.319Z" fill="#FFE3CA"/>
<path d="M155.72 326.429C155.72 326.429 152.205 330.636 151.124 331.083C149.682 331.71 145.267 330.367 145.267 330.367C145.267 330.367 144.095 311.078 142.743 303.56C141.392 296.041 139.409 294.072 139.319 291.7C139.184 287.896 135.985 286.375 136.525 283.421C137.066 280.467 138.012 269.906 138.328 271.293C141.076 283.287 144.456 273.307 145.222 271.74C145.627 270.89 155.72 326.429 155.72 326.429Z" fill="#F2F0F0"/>
<path d="M139.725 267.713C139.725 267.713 135.444 272.367 135.76 274.202C136.03 276.037 133.912 281.765 136.03 289.731C138.418 298.816 139.68 304.992 140.13 310.944C140.581 316.897 138.553 322.356 139.364 329.651C139.995 335.38 141.302 335.693 141.302 335.693C141.302 335.693 143.87 336.319 145.672 334.082C147.475 331.889 144.771 312.376 143.87 307.543C142.969 302.665 140.085 291.298 139.319 287.941C138.373 283.824 138.553 279.617 138.598 278.409C138.824 274.157 139.364 271.517 139.815 269.906C139.86 269.682 140.085 267.176 139.725 267.713Z" fill="#0E538C"/>
<path d="M147.204 273.173C149.547 279.886 156.847 283.332 163.515 280.87C170.184 278.409 173.698 270.98 171.355 264.267C169.012 257.554 161.713 254.108 155.044 256.569C148.376 258.986 144.861 266.46 147.204 273.173Z" fill="#0E538C"/>
<path d="M124.27 388.546L126.658 407.477L116.294 412.355L110.572 413.608L120.755 405.776L117.421 388.681L124.27 388.546Z" fill="#FCBAA2"/>
<path d="M127.334 410.341L125.081 410.923L123.549 409.535L115.258 413.653L107.914 415.398C107.914 415.398 107.824 414.816 108.049 414.503C108.95 413.295 114.132 410.654 114.132 410.654C114.132 410.654 114.222 412.4 114.943 412.444C115.664 412.489 122.017 409.177 123.504 408.282C126.027 406.716 126.523 405.687 126.703 405.821C127.244 406.089 127.334 410.341 127.334 410.341Z" fill="#0E538C"/>
<path d="M99.2626 362.231L91.017 378.342L79.6624 377.805L73.9851 376.15L86.5563 374.046L93.4051 360.262L99.2626 362.231Z" fill="#FCBAA2"/>
<path d="M90.3412 381.207L88.0883 380.67L87.3674 378.7L77.1392 378.566L71.0564 377.134C71.0564 377.134 71.7773 376.328 72.2279 376.105C73.5796 375.523 78.4008 375.254 78.4008 375.254C78.4008 375.254 77.9052 376.642 78.536 377C79.1668 377.403 86.1959 377.626 87.9081 377.492C90.8819 377.268 91.738 376.642 91.8281 376.821C92.1435 377.447 90.3412 381.207 90.3412 381.207Z" fill="#0E538C"/>
<path d="M159.415 314.032L153.287 316.762L153.332 325.131L111.113 318.284C111.113 318.284 107.103 316.986 104.534 323.565C100.885 332.873 91.6028 361.829 91.6028 361.829L97.4603 368.139L115.889 335.424C115.889 335.424 153.647 353.639 166.083 349.7C170.86 348.179 174.509 339.497 173.833 330.725C173.293 323.833 171.941 317.523 171.941 317.523L159.415 314.032Z" fill="#FFB750"/>
<path d="M154.053 349.522L123.819 347.284L126.433 395.259L117.511 395.573L110.933 339.363C110.933 339.363 112.69 330.994 118.457 332.247C124.27 333.545 138.238 344.554 154.053 349.522Z" fill="#FFB750"/>
<path d="M174.419 361.56C174.419 361.56 158.559 343.883 154.458 333.903C149.547 321.954 149.953 306.961 149.051 301.994C147.384 292.864 145.357 275.142 144.996 272.949C144.591 270.756 145.987 268.295 145.987 268.295C145.987 268.295 144.951 261.671 147.925 262.387C152.205 263.416 156.441 265.744 157.928 266.46C160.721 267.713 166.444 301.099 166.759 302.71C167.931 308.528 172.211 313.808 175.275 319.224C182.484 332.068 184.332 347.239 184.332 347.239C184.332 347.239 183.431 358.338 174.419 361.56Z" fill="#2A94F4"/>
<path d="M158.063 315.33C158.063 315.33 157.928 317.478 147.835 316.986C137.742 316.449 122.963 313.093 122.963 313.093L146.348 312.019C146.348 312.019 155.315 312.063 158.063 315.33Z" fill="#FFE3CA"/>
<path d="M130.893 314.256C126.072 314.167 123.999 316.628 122.107 317.389C120.215 318.15 118.277 319.269 118.277 319.269C119.358 317.165 120.89 317.121 121.701 316.449C122.467 315.778 122.287 316.136 120.575 315.957C119.584 315.868 117.872 317.613 116.655 318.597C115.574 319.448 114.898 319.493 114.898 319.493C114.898 319.493 116.159 317.702 117.736 316.27C119.674 314.57 122.017 313.138 122.603 312.914C123.639 312.511 126.838 312.466 129.136 312.824C131.704 313.182 134.363 314.346 130.893 314.256Z" fill="#FFE3CA"/>
<path d="M122.828 312.958C122.828 312.958 119.133 313.854 118.502 314.346C118.052 314.704 116.159 316.718 116.159 316.718C116.159 316.718 117.511 316.494 118.322 315.733C119.133 315.017 122.828 312.958 122.828 312.958Z" fill="#FFE3CA"/>
<path d="M149.998 312.958L164.957 305.126C164.957 305.126 165.002 314.614 165.092 318.239C165.182 321.864 166.714 326.966 163.831 327.727C160.947 328.488 159.46 328.085 162.434 329.83C165.408 331.531 164.732 333.321 163.605 334.798C162.479 336.275 167.39 351.312 166.219 352.162C161.578 346.344 156.576 339.139 154.413 333.903C151.665 327.1 150.584 319.313 149.998 312.958Z" fill="#0E538C"/>
<path d="M154.819 309.154L154.233 278.901C154.233 278.901 154.278 269.458 154.458 266.684C154.639 263.819 159.55 267.176 159.55 267.176C159.55 267.176 166.444 276.44 166.579 298.772C166.669 313.719 165.858 321.506 158.919 320.88C152.476 320.298 145.131 319.313 145.131 319.313L141.932 311.034L154.819 309.154Z" fill="#2A94F4"/>
<path d="M153.287 325.131L101.786 318.731L101.921 317.657L153.422 324.057L153.287 325.131Z" fill="#D3D3D3"/>
<path d="M130.713 321.193C130.623 322.043 129.947 322.67 129.226 322.58L102.822 319.313C102.101 319.224 101.2 318.552 100.569 316.315L90.3862 290.134C90.5214 289.06 91.3775 288.523 92.0984 288.792L119.088 292.998C119.809 293.267 120.305 293.893 120.575 295.057L130.713 321.193Z" fill="#D3D3D3"/>
<path d="M127.379 321.909L127.649 321.954L153.422 325.176C152.431 325.579 150.854 325.713 149.097 325.489L127.514 322.804L127.244 322.759L105.661 320.074C103.904 319.85 102.417 319.313 101.516 318.731L127.379 321.909Z" fill="#D3D3D3"/>
<path d="M154.819 309.154L154.233 278.901C154.233 278.901 154.684 276.35 155.585 274.068C155.81 277.38 157.342 301.233 157.522 304.366C157.748 307.767 160.541 308.125 161.127 309.244C161.758 310.318 161.217 310.542 159.144 310.139C157.117 309.691 157.838 310.049 158.288 311.123C158.739 312.242 157.612 311.929 153.647 310.497C150.764 309.468 145.222 310.497 142.428 311.123L154.819 309.154Z" fill="#0E538C"/>
<path d="M332.888 234.909C327.931 236.207 318.785 240.771 316.847 248.603C313.963 260.373 319.731 277.603 310.629 294.52C307.7 299.89 360.959 307.14 360.959 307.14L371.232 247.708C371.232 247.708 358.391 234.819 355.777 233.924C350.325 232.134 342.801 232.313 332.888 234.909Z" fill="#CCE9FF"/>
<path d="M371.277 247.753C373.124 252.497 377.81 280.736 372.584 287.404C371.998 288.165 375.287 289.373 374.701 292.864C374.611 293.446 373.62 296.265 373.62 296.265L369.385 297.384L360.148 286.778C360.148 286.778 363.888 281.004 368.799 259.12C370.241 252.676 370.872 246.679 371.277 247.753Z" fill="#2A94F4"/>
<path d="M336.312 281.497C336.312 281.497 340.773 293.177 351.542 296.31C353.389 296.847 354.56 298.906 353.659 299.577C352.488 300.427 350.956 300.606 348.252 300.606C342.62 300.606 334.96 298.816 329.688 293.535C321.848 285.748 319.37 282.168 320.181 278.275C320.902 274.292 336.312 281.497 336.312 281.497Z" fill="#FCD2B1"/>
<path d="M318.379 244.665C316.081 248.514 314.774 254.69 314.819 263.551C314.819 270.398 320.587 281.631 321.443 285.077C321.578 285.659 321.939 288.12 321.939 288.12L328.292 294.565L341.043 285.659L337.168 279.528L335.997 279.662C335.997 279.662 335.276 276.261 335.456 274.963C335.636 273.665 331.942 255.987 330.094 244.665C329.058 238.086 320.632 240.861 318.379 244.665Z" fill="#2A94F4"/>
<path d="M329.824 279.393L333.564 278.23L335.096 277.827C335.186 278.901 336.087 279.617 336.087 279.617L333.158 279.975L329.779 281.049L325.814 283.869L329.824 279.393Z" fill="#0E538C"/>
<path d="M350.731 296.265L357.219 294.43C357.219 294.43 359.066 296.981 358.706 297.608C358.345 298.234 358.706 301.993 358.706 301.993L355.552 304.768L352.984 303.873C352.984 303.873 352.803 302.709 353.659 302.62C354.561 302.486 353.074 301.859 352.623 301.591C352.173 301.277 348.433 299.308 350.731 296.265Z" fill="#FCD2B1"/>
<path d="M340.728 234.327C340.007 236.43 341.088 238.802 343.161 239.518L346.856 240.861C348.928 241.622 351.181 240.458 351.902 238.355L355.191 228.688C355.912 226.585 354.831 224.213 352.758 223.452L349.063 222.109C346.991 221.349 344.738 222.512 344.017 224.616L340.728 234.327Z" fill="#FF957E"/>
<path d="M356.858 242.83C356.498 244.217 355.056 245.068 353.704 244.665L342.575 241.487C341.223 241.085 340.412 239.652 340.773 238.22L345.324 221.259C345.684 219.872 347.126 219.021 348.478 219.424L359.607 222.557C360.959 222.96 361.77 224.392 361.409 225.824L356.858 242.83Z" fill="#FCD2B1"/>
<path d="M362.626 224.123C362.716 224.034 361.59 222.78 362.175 220.319C362.941 217.007 360.463 215.665 358.616 215.62C357.535 215.575 353.885 217.321 351.947 217.902C350.01 218.484 350.19 217.723 346.676 217.097C344.332 216.649 343.792 217.947 342.981 219.737C342.17 221.572 342.08 228.554 342.08 228.554C342.395 229.001 342.891 229.359 343.206 229.001C343.521 228.643 344.783 223.049 345.819 221.393C346.811 219.737 350.866 222.378 353.074 223.676C355.237 224.973 357.174 225.197 360.644 224.481C361.049 224.929 361.409 225.421 361.409 225.645C361.409 226.092 360.418 229.27 360.418 229.27C360.418 229.27 362.356 228.061 362.896 227.122C363.167 226.808 363.257 225.287 362.626 224.123Z" fill="#E794FF"/>
<path d="M344.287 234.685C344.152 235.133 343.702 235.446 343.251 235.312L340.863 234.64C340.412 234.506 340.142 234.014 340.277 233.566L341.494 229.046C341.629 228.599 342.079 228.285 342.53 228.42L344.918 229.091C345.369 229.225 345.639 229.717 345.504 230.165L344.287 234.685Z" fill="#FCD2B1"/>
<path d="M342.8 230.389C342.8 230.389 340.998 237.057 340.412 239.295C339.872 241.308 339.466 245.963 350.505 249.095C357.039 250.93 358.12 245.918 358.571 244.307C358.886 243.054 358.526 238.981 358.03 238.086C358.03 238.041 357.309 240.861 357.309 240.861C357.309 240.861 356.678 237.773 353.569 236.923C348.568 235.491 346.585 238.22 344.423 237.504C342.71 236.923 342.215 233.7 342.8 230.389Z" fill="#E794FF"/>
<path d="M350.325 240.637L353.749 241.622C354.2 241.756 354.696 241.487 354.786 240.995L354.921 240.503L349.829 239.071L349.694 239.563C349.604 240.055 349.875 240.503 350.325 240.637Z" fill="#FCD2B1"/>
<path d="M404.62 308.438C403.043 312.958 375.287 329.562 365.96 328.577L337.889 329.965C314.054 326.966 302.744 288.836 302.744 288.836C303.69 279.259 327.211 293.133 335.591 297.429C348.838 304.232 357.264 304.59 357.264 304.59C366.141 305.529 376.414 298.458 387.633 298.235C399.934 297.921 407.143 301.323 404.62 308.438Z" fill="#0B4870"/>
<path d="M343.611 303.873C343.611 303.828 343.611 303.828 343.611 303.873V302.62L391.868 301.725V302.933V302.978L391.733 303.202C391.147 304.276 390.021 304.455 388.759 304.5L346.765 305.305C345.504 305.35 344.377 305.171 343.747 304.142L343.611 303.873Z" fill="#D3D3D3"/>
<path d="M355.236 303.829C355.236 303.829 355.236 303.874 355.236 303.829L355.101 304.053C354.921 304.321 354.696 304.545 354.425 304.679L347.081 304.813C345.864 304.858 344.783 304.724 344.152 303.874L344.017 303.695C344.017 303.695 344.017 303.695 343.972 303.65V303.068L355.146 302.844L355.236 303.829Z" fill="#D3D3D3"/>
<path d="M361.77 303.381L385.876 302.933V302.083L361.725 302.575L361.77 303.381Z" fill="#D3D3D3"/>
<path d="M355.507 302.352L361.319 277.827C361.454 277.201 362.085 276.663 362.716 276.619L396.599 275.992C397.23 275.992 397.591 276.484 397.455 277.156L391.643 301.68L355.507 302.352Z" fill="#D3D3D3"/>
<path d="M333.654 336.275C336.988 336.856 339.556 332.873 339.556 332.873L348.207 325.892L346.36 321.148L329.508 328.935C329.508 328.935 330.274 335.693 333.654 336.275Z" fill="#FCD2B1"/>
<path d="M339.511 332.605C339.511 332.605 339.511 333.008 338.88 334.843C338.25 336.677 337.438 337.304 336.627 337.572C333.383 338.557 331.085 338.065 323.335 339.586C315.585 341.108 313.242 339.944 310.989 336.275C308.737 332.605 311.08 329.696 314.864 329.427C320.316 329.025 323.38 329.651 326.219 329.204C329.193 328.756 329.373 328.04 331.13 326.921C332.752 325.892 334.284 332.068 332.752 333.5C331.356 334.753 338.385 334.932 339.511 332.605Z" fill="#FFB750"/>
<path d="M337.889 336.14C334.69 337.125 332.347 336.632 324.597 338.154C316.847 339.676 314.504 338.512 312.251 334.842C311.215 333.142 311.17 331.62 311.756 330.457C310.043 331.665 309.458 333.768 310.99 336.274C313.242 339.944 315.585 341.108 323.335 339.586C331.085 338.065 333.428 338.557 336.627 337.572C337.258 337.393 337.889 336.946 338.43 335.916C338.249 336.006 338.069 336.095 337.889 336.14Z" fill="white"/>
<path d="M339.511 332.739C339.511 332.649 339.511 332.649 339.511 332.649C339.511 332.694 339.466 332.739 339.421 332.784C339.466 332.739 339.511 332.739 339.511 332.739Z" fill="#E9D6B8"/>
<path d="M322.795 335.469C322.57 335.558 322.344 335.066 322.254 334.395C322.119 333.007 321.804 331.665 321.353 330.277C321.128 329.606 321.128 329.024 321.398 328.935C321.668 328.845 322.119 329.338 322.299 330.009C322.75 331.352 323.02 332.739 323.155 334.081C323.245 334.753 323.02 335.379 322.795 335.469Z" fill="white"/>
<path d="M325.183 335.021C324.913 335.066 324.687 334.619 324.597 333.992C324.462 332.694 324.147 331.396 323.696 330.143C323.471 329.517 323.471 328.98 323.786 328.935C324.056 328.89 324.507 329.382 324.732 330.009C325.138 331.262 325.453 332.56 325.588 333.813C325.633 334.44 325.453 334.977 325.183 335.021Z" fill="white"/>
<path d="M327.706 334.932C327.436 334.977 327.165 334.484 327.075 333.813C326.85 332.47 326.535 331.173 326.039 329.83C325.814 329.159 325.814 328.622 326.084 328.622C326.399 328.622 326.85 329.114 327.075 329.785C327.571 331.083 327.886 332.426 328.067 333.723C328.157 334.35 327.977 334.887 327.706 334.932Z" fill="white"/>
<path d="M334.24 324.863C334.24 324.863 393.581 299.756 396.96 299.711C408.405 299.622 405.791 311.526 399.979 317.165C393.13 323.789 341.043 335.917 341.043 335.917L334.24 324.863Z" fill="#0E538C"/>
<path d="M357.759 329.248L341.539 313.406L348.477 306.379L366.14 325.534L357.759 329.248Z" fill="#FCD2B1"/>
<path d="M361.094 316.807C361.094 316.807 319.866 277.917 317.118 276.753C307.7 272.815 301.888 283.511 302.203 287.225C302.654 292.014 344.513 330.949 344.513 330.949L361.094 316.807Z" fill="#0E538C"/>
<path d="M385.515 330.457C386.461 331.352 386.642 334.082 386.642 334.082C386.642 334.082 372.899 339.452 368.078 339.542C366.816 339.586 364.563 339.049 362.401 338.423C362.04 338.333 361.184 337.349 360.824 337.259C360.148 337.08 360.012 337.707 359.472 337.528C358.03 337.035 356.949 336.633 356.903 336.543C353.975 330.188 354.966 327.055 354.966 327.055C354.966 327.055 361.274 328.935 360.193 327.458C357.895 324.326 364.518 321.148 365.96 322.804C371.908 329.472 382.722 327.816 385.515 330.457Z" fill="#FFB750"/>
<path d="M386.281 331.799C382.046 333.545 373.169 337.08 371.412 337.214C364.158 337.751 359.111 335.111 355.732 333.545C356.047 334.44 356.408 335.469 356.903 336.543C356.948 336.633 357.985 337.035 359.472 337.528C360.057 337.707 360.193 337.035 360.823 337.259C361.184 337.349 361.995 338.333 362.4 338.423C364.563 339.049 366.816 339.542 368.078 339.542C372.899 339.452 386.642 334.082 386.642 334.082C386.642 334.082 386.642 332.829 386.281 331.799Z" fill="white"/>
<path d="M376.594 327.682C376.729 327.95 376.188 328.219 375.423 328.398C373.845 328.711 372.314 329.203 370.782 329.83C370.016 330.143 369.34 330.233 369.25 329.964C369.159 329.696 369.655 329.203 370.421 328.89C371.908 328.263 373.485 327.816 375.017 327.503C375.738 327.279 376.459 327.413 376.594 327.682Z" fill="white"/>
<path d="M373.485 326.563C373.62 326.832 373.079 327.19 372.313 327.414C370.781 327.861 369.294 328.488 367.808 329.248C367.087 329.607 366.411 329.741 366.321 329.472C366.231 329.204 366.726 328.622 367.447 328.264C368.889 327.548 370.376 326.921 371.908 326.518C372.674 326.205 373.395 326.295 373.485 326.563Z" fill="white"/>
<path d="M370.511 325.578C370.601 325.847 370.106 326.25 369.385 326.518C367.898 327.1 366.456 327.816 365.059 328.666C364.383 329.114 363.752 329.248 363.662 328.935C363.572 328.666 364.023 328.04 364.744 327.592C366.14 326.742 367.582 326.026 369.024 325.489C369.745 325.265 370.421 325.31 370.511 325.578Z" fill="white"/>
</svg>
